<svg width="14" height="14" viewBox="0 0 14 14" fill="none" xmlns="http://www.w3.org/2000/svg">
<g clip-path="url(#clip0_107_2616)">
<path d="M0.5 5.14307H13.5M12.3393 12.1074H1.66071C1.35287 12.1074 1.05764 11.9851 0.839965 11.7674C0.622289 11.5497 0.5 11.2545 0.5 10.9466V3.05378C0.5 2.74594 0.622289 2.45071 0.839965 2.23303C1.05764 2.01536 1.35287 1.89307 1.66071 1.89307H3.86288C4.09206 1.89307 4.31611 1.96092 4.50679 2.08807L5.31464 2.62664C5.50532 2.75378 5.72937 2.82163 5.95855 2.82164H12.3393C12.6471 2.82164 12.9424 2.94393 13.16 3.1616C13.3777 3.37928 13.5 3.67451 13.5 3.98235V10.9466C13.5 11.2545 13.3777 11.5497 13.16 11.7674C12.9424 11.9851 12.6471 12.1074 12.3393 12.1074Z" stroke="white" stroke-width="1.1" stroke-linecap="round" stroke-linejoin="round"/>
</g>
<defs>
<clipPath id="clip0_107_2616">
<rect width="14" height="14" fill="white"/>
</clipPath>
</defs>
</svg>
