<svg width="14" height="14" viewBox="0 0 14 14" fill="none" xmlns="http://www.w3.org/2000/svg">
<g clip-path="url(#clip0_107_2629)">
<path d="M7.31579 10.3333L4.15789 12.3333V10.3333H2.89474C2.39222 10.3333 1.91029 10.1226 1.55496 9.74755C1.19962 9.37247 1 8.86377 1 8.33333V3C1 2.46957 1.19962 1.96086 1.55496 1.58579C1.91029 1.21071 2.39222 1 2.89474 1H10.4737C10.9762 1 11.4581 1.21071 11.8135 1.58579C12.1688 1.96086 12.3684 2.46957 12.3684 3V6M13 13C13 12.6464 12.8669 12.3072 12.63 12.0572C12.3931 11.8071 12.0719 11.6667 11.7368 11.6667H10.4737C10.1387 11.6667 9.81738 11.8071 9.5805 12.0572C9.34361 12.3072 9.21053 12.6464 9.21053 13M9.8421 9.66667C9.8421 10.0203 9.97519 10.3594 10.2121 10.6095C10.449 10.8595 10.7703 11 11.1053 11C11.4403 11 11.7616 10.8595 11.9984 10.6095C12.2353 10.3594 12.3684 10.0203 12.3684 9.66667C12.3684 9.31304 12.2353 8.97391 11.9984 8.72386C11.7616 8.47381 11.4403 8.33333 11.1053 8.33333C10.7703 8.33333 10.449 8.47381 10.2121 8.72386C9.97519 8.97391 9.8421 9.31304 9.8421 9.66667Z" stroke="white" stroke-width="1.1" stroke-linecap="round" stroke-linejoin="round"/>
</g>
<defs>
<clipPath id="clip0_107_2629">
<rect width="14" height="14" fill="white"/>
</clipPath>
</defs>
</svg>
