<svg width="14" height="14" viewBox="0 0 14 14" fill="none" xmlns="http://www.w3.org/2000/svg">
<g clip-path="url(#clip0_107_2628)">
<path d="M2.77148 9.75879C6.0169 11.3815 7.96415 11.3815 11.2096 9.75879" stroke="white" stroke-width="1.1" stroke-linecap="round" stroke-linejoin="round"/>
<path d="M9.263 10.7323L9.91208 12.0305C9.91208 12.0305 12.6194 11.1685 13.482 9.75872C13.482 9.10964 13.8261 4.47064 11.5348 2.94335C10.5612 2.29427 8.93846 1.96973 8.93846 1.96973L8.28938 3.26789H6.99121" stroke="white" stroke-width="1.1" stroke-linecap="round" stroke-linejoin="round"/>
<path d="M4.73738 10.7323L4.0883 12.0305C4.0883 12.0305 1.38098 11.1685 0.518347 9.75872C0.518347 9.10964 0.174333 4.47064 2.46559 2.94335C3.43922 2.29427 5.06193 1.96973 5.06193 1.96973L5.71101 3.26789H7.00917" stroke="white" stroke-width="1.1" stroke-linecap="round" stroke-linejoin="round"/>
<path d="M4.71874 8.46059C4.1813 8.46059 3.74512 7.87966 3.74512 7.16242C3.74512 6.44519 4.1813 5.86426 4.71874 5.86426C5.25618 5.86426 5.69236 6.44519 5.69236 7.16242C5.69236 7.87966 5.25618 8.46059 4.71874 8.46059ZM9.26232 8.46059C8.72488 8.46059 8.2887 7.87966 8.2887 7.16242C8.2887 6.44519 8.72488 5.86426 9.26232 5.86426C9.79976 5.86426 10.2359 6.44519 10.2359 7.16242C10.2359 7.87966 9.79976 8.46059 9.26232 8.46059Z" stroke="white" stroke-width="1.1" stroke-linecap="round" stroke-linejoin="round"/>
</g>
<defs>
<clipPath id="clip0_107_2628">
<rect width="14" height="14" fill="white"/>
</clipPath>
</defs>
</svg>
