<svg width="14" height="14" viewBox="0 0 14 14" fill="none" xmlns="http://www.w3.org/2000/svg">
<g clip-path="url(#clip0_107_2630)">
<path d="M6.39998 1C3.96666 1.00467 2.69333 1.064 1.87866 1.87866C1 2.75733 1 4.17132 1 6.99998C1 9.82864 1 11.2426 1.87866 12.1213C2.75733 13 4.17199 13 6.99998 13C9.82797 13 11.2426 13 12.122 12.1213C12.9353 11.3073 12.9953 10.0326 13 7.59998" stroke="white" stroke-width="1.1" stroke-linecap="round" stroke-linejoin="round"/>
<path d="M13.0006 3.01666L12.334 3.01533C9.84264 3.00866 8.59731 3.00533 7.72198 3.63532C7.43065 3.84399 7.17531 4.09866 6.96532 4.38866C6.33398 5.26399 6.33398 6.50932 6.33398 8.99997M13.0006 3.01666C13.0021 2.90093 12.9605 2.78879 12.884 2.70199C12.374 2.098 11.048 1 11.048 1M13.0006 3.01666C12.9945 3.12076 12.9536 3.21981 12.8846 3.29799C12.374 3.90199 11.0473 4.99999 11.0473 4.99999" stroke="white" stroke-width="1.1" stroke-linecap="round" stroke-linejoin="round"/>
</g>
<defs>
<clipPath id="clip0_107_2630">
<rect width="14" height="14" fill="white"/>
</clipPath>
</defs>
</svg>
