<svg width="14" height="14" viewBox="0 0 14 14" fill="none" xmlns="http://www.w3.org/2000/svg">
<g clip-path="url(#clip0_107_2624)">
<path d="M4.95072 12.8024C5.31475 12.8024 5.66388 12.6578 5.92129 12.4004C6.1787 12.143 6.32331 11.7939 6.32331 11.4298C6.32331 11.0658 6.1787 10.7167 5.92129 10.4592C5.66388 10.2018 5.31475 10.0572 4.95072 10.0572C4.58668 10.0572 4.23756 10.2018 3.98015 10.4592C3.72274 10.7167 3.57813 11.0658 3.57812 11.4298C3.57813 11.7939 3.72274 12.143 3.98015 12.4004C4.23756 12.6578 4.58668 12.8024 4.95072 12.8024ZM11.1276 11.0866C11.4915 11.0866 11.8405 10.942 12.0979 10.6847C12.3552 10.4273 12.4998 10.0783 12.4998 9.71442C12.4998 9.35051 12.3552 9.0015 12.0979 8.74417C11.8405 8.48685 11.4915 8.34229 11.1276 8.34229C10.7637 8.34229 10.4147 8.48685 10.1574 8.74417C9.90005 9.0015 9.75549 9.35051 9.75549 9.71442C9.75549 10.0783 9.90005 10.4273 10.1574 10.6847C10.4147 10.942 10.7637 11.0866 11.1276 11.0866Z" stroke="white" stroke-width="1.1" stroke-linecap="round" stroke-linejoin="round"/>
<path d="M12.5 9.71471V4.33433C12.4997 4.2818 12.4874 4.23003 12.4639 4.18303C12.4405 4.13603 12.4065 4.09505 12.3647 4.06325C12.3229 4.03145 12.2744 4.00968 12.2228 3.99963C12.1712 3.98957 12.1181 3.9915 12.0674 4.00527L9.32218 4.76696M12.5 5.94019L7.50092 7.32883M6.32401 11.4297V8.64505M2.53941 6.56531V8.64413M1.5 7.60472H3.57883M5.06462 2.87511C5.4725 2.32424 5.72365 1.19775 5.72365 1.19775C5.72365 1.19775 5.97479 2.32424 6.38176 2.87511C6.79331 3.43057 8.10312 3.91636 8.10312 3.91636C8.10312 3.91636 6.79239 4.40215 6.38176 4.95852C5.97479 5.50848 5.72365 6.63497 5.72365 6.63497C5.72365 6.63497 5.4725 5.50939 5.06462 4.95761C4.65399 4.40307 3.34418 3.91636 3.34418 3.91636C3.34418 3.91636 4.65399 3.43057 5.06462 2.87511Z" stroke="white" stroke-width="1.1" stroke-linecap="round" stroke-linejoin="round"/>
</g>
<defs>
<clipPath id="clip0_107_2624">
<rect width="14" height="14" fill="white"/>
</clipPath>
</defs>
</svg>
