<svg width="14" height="14" viewBox="0 0 14 14" fill="none" xmlns="http://www.w3.org/2000/svg">
<g clip-path="url(#clip0_107_2615)">
<path d="M13 12.2381V5.7619C13 5.64362 12.9729 5.52697 12.9208 5.42117C12.8687 5.31538 12.7931 5.22335 12.7 5.15238L7.45 1.15238C7.32018 1.05347 7.16228 1 7 1C6.83772 1 6.67982 1.05347 6.55 1.15238L1.3 5.15238C1.20685 5.22335 1.13125 5.31538 1.07918 5.42117C1.02711 5.52697 1 5.64362 1 5.7619V12.2381C1 12.4402 1.07902 12.634 1.21967 12.7768C1.36032 12.9197 1.55109 13 1.75 13H4.75C4.94891 13 5.13968 12.9197 5.28033 12.7768C5.42098 12.634 5.5 12.4402 5.5 12.2381V9.95238C5.5 9.75031 5.57902 9.55652 5.71967 9.41363C5.86032 9.27075 6.05109 9.19048 6.25 9.19048H7.75C7.94891 9.19048 8.13968 9.27075 8.28033 9.41363C8.42098 9.55652 8.5 9.75031 8.5 9.95238V12.2381C8.5 12.4402 8.57902 12.634 8.71967 12.7768C8.86032 12.9197 9.05109 13 9.25 13H12.25C12.4489 13 12.6397 12.9197 12.7803 12.7768C12.921 12.634 13 12.4402 13 12.2381Z" stroke="white" stroke-width="1.1" stroke-linecap="round" stroke-linejoin="round"/>
</g>
<defs>
<clipPath id="clip0_107_2615">
<rect width="14" height="14" fill="white"/>
</clipPath>
</defs>
</svg>
