<svg width="14" height="14" viewBox="0 0 14 14" fill="none" xmlns="http://www.w3.org/2000/svg">
<g clip-path="url(#clip0_107_2622)">
<path d="M1.86842 13.5C1.4921 13.5 1.17007 13.3703 0.902316 13.1109C0.634561 12.8514 0.500456 12.5392 0.5 12.1741V3.97042C0.5 3.6942 0.577088 3.44295 0.731263 3.21667C0.885439 2.99039 1.09344 2.82731 1.35526 2.72743L6.82895 0.606068C7.28509 0.429288 7.71272 0.473483 8.11184 0.738654C8.51096 1.00382 8.71052 1.37396 8.71052 1.84906V2.89317C9.08684 2.89317 9.4091 3.0231 9.67731 3.28297C9.94552 3.54283 10.0794 3.85485 10.0789 4.21902V4.88195C10.0789 5.06977 10.0133 5.22733 9.88189 5.35461C9.75052 5.48189 9.58814 5.54531 9.39473 5.54487C9.20133 5.54443 9.03894 5.48079 8.90758 5.35395C8.77621 5.22711 8.71052 5.06977 8.71052 4.88195V4.21902H1.86842V12.1741H4.725C4.91886 12.1741 5.08147 12.2378 5.21284 12.3651C5.34421 12.4923 5.40967 12.6497 5.40921 12.8371C5.40875 13.0245 5.34307 13.182 5.21216 13.3097C5.08124 13.4375 4.91886 13.5009 4.725 13.5H1.86842ZM4.60526 2.89317H7.3421V1.86563L4.60526 2.89317ZM10.0789 13.5C9.13245 13.5 8.32577 13.1767 7.65889 12.5301C6.99202 11.8836 6.65835 11.102 6.65789 10.1854C6.65744 9.26875 6.9911 8.48716 7.65889 7.84059C8.32668 7.19401 9.13337 6.87072 10.0789 6.87072C11.0245 6.87072 11.8314 7.19401 12.4997 7.84059C13.1679 8.48716 13.5014 9.26875 13.5 10.1854C13.4986 11.102 13.165 11.8838 12.499 12.5308C11.833 13.1778 11.0263 13.5009 10.0789 13.5ZM9.75394 11.5278L11.4987 10.4671C11.6127 10.4008 11.6697 10.3069 11.6697 10.1854C11.6697 10.0638 11.6127 9.96991 11.4987 9.90361L9.75394 8.84293C9.63991 8.77664 9.52291 8.77377 9.40294 8.83431C9.28298 8.89486 9.22323 8.99165 9.22368 9.12467V11.246C9.22368 11.3786 9.28366 11.4754 9.40363 11.5364C9.52359 11.5974 9.64037 11.5945 9.75394 11.5278Z" fill="white"/>
</g>
<defs>
<clipPath id="clip0_107_2622">
<rect width="14" height="14" fill="white"/>
</clipPath>
</defs>
</svg>
