<svg width="14" height="14" viewBox="0 0 14 14" fill="none" xmlns="http://www.w3.org/2000/svg">
<path d="M7.7 5.00016H0.7C0.315 5.00016 0 5.30016 0 5.66683C0 6.0335 0.315 6.3335 0.7 6.3335H7.7C8.085 6.3335 8.4 6.0335 8.4 5.66683C8.4 5.30016 8.085 5.00016 7.7 5.00016ZM7.7 2.3335H0.7C0.315 2.3335 0 2.6335 0 3.00016C0 3.36683 0.315 3.66683 0.7 3.66683H7.7C8.085 3.66683 8.4 3.36683 8.4 3.00016C8.4 2.6335 8.085 2.3335 7.7 2.3335ZM11.2 7.66683V5.66683C11.2 5.30016 10.885 5.00016 10.5 5.00016C10.115 5.00016 9.8 5.30016 9.8 5.66683V7.66683H7.7C7.315 7.66683 7 7.96683 7 8.3335C7 8.70016 7.315 9.00016 7.7 9.00016H9.8V11.0002C9.8 11.3668 10.115 11.6668 10.5 11.6668C10.885 11.6668 11.2 11.3668 11.2 11.0002V9.00016H13.3C13.685 9.00016 14 8.70016 14 8.3335C14 7.96683 13.685 7.66683 13.3 7.66683H11.2ZM0.7 9.00016H4.9C5.285 9.00016 5.6 8.70016 5.6 8.3335C5.6 7.96683 5.285 7.66683 4.9 7.66683H0.7C0.315 7.66683 0 7.96683 0 8.3335C0 8.70016 0.315 9.00016 0.7 9.00016Z" fill="white"/>
</svg>
