<svg width="14" height="14" viewBox="0 0 14 14" fill="none" xmlns="http://www.w3.org/2000/svg">
<g clip-path="url(#clip0_108_2634)">
<path d="M1.97727 13.5C1.57102 13.5 1.22337 13.3587 0.934318 13.076C0.645265 12.7934 0.500492 12.4533 0.5 12.0555V1.94444C0.5 1.54722 0.644773 1.2073 0.934318 0.924666C1.22386 0.642037 1.57152 0.500481 1.97727 0.5H6.40909C6.61837 0.5 6.79392 0.569333 6.93574 0.708C7.07756 0.846666 7.14822 1.01807 7.14773 1.22222C7.14724 1.42637 7.07633 1.59802 6.935 1.73717C6.79367 1.87631 6.61837 1.94541 6.40909 1.94444H1.97727V12.0555H6.40909C6.61837 12.0555 6.79392 12.1249 6.93574 12.2635C7.07756 12.4022 7.14822 12.5736 7.14773 12.7778C7.14724 12.9819 7.07633 13.1536 6.935 13.2927C6.79367 13.4319 6.61837 13.501 6.40909 13.5H1.97727ZM10.9702 7.72222H5.67045C5.46117 7.72222 5.28587 7.65288 5.14455 7.51422C5.00322 7.37555 4.93231 7.20414 4.93182 7C4.93133 6.79585 5.00223 6.62444 5.14455 6.48577C5.28686 6.34711 5.46216 6.27777 5.67045 6.27777H10.9702L9.58523 4.92361C9.44981 4.7912 9.3821 4.6287 9.3821 4.43611C9.3821 4.24352 9.44981 4.075 9.58523 3.93055C9.72064 3.78611 9.89299 3.71076 10.1023 3.7045C10.3116 3.69824 10.4901 3.76757 10.6378 3.9125L13.2784 6.49444C13.4261 6.63888 13.5 6.8074 13.5 7C13.5 7.19259 13.4261 7.36111 13.2784 7.50555L10.6378 10.0875C10.4901 10.2319 10.3148 10.3013 10.1119 10.2955C9.909 10.2897 9.73345 10.2144 9.58523 10.0694C9.44981 9.92499 9.3853 9.75359 9.3917 9.55522C9.39811 9.35685 9.46877 9.19122 9.60369 9.05833L10.9702 7.72222Z" fill="white"/>
</g>
<defs>
<clipPath id="clip0_108_2634">
<rect width="14" height="14" fill="white"/>
</clipPath>
</defs>
</svg>
