<svg width="14" height="14" viewBox="0 0 14 14" fill="none" xmlns="http://www.w3.org/2000/svg">
<path d="M3.66667 1.4C3.66667 1.03133 3.368 1 3 1C2.63133 1 2.33333 1.03133 2.33333 1.4V7H3.66667V1.4ZM2.33333 12.6C2.33333 12.9673 2.63133 13 3 13C3.36867 13 3.66667 12.9673 3.66667 12.6V10.3333H2.33333V12.6ZM4.59933 7.66667H1.39933C1.03067 7.66667 1 7.96533 1 8.33333V9C1 9.36867 1.03067 9.66667 1.39933 9.66667H4.6C4.96667 9.66667 5 9.36867 5 9V8.33333C5 7.96533 4.96667 7.66667 4.59933 7.66667ZM12.5993 8.33333H9.39867C9.03067 8.33333 9 8.632 9 9V9.66667C9 10.0353 9.03067 10.3333 9.39933 10.3333H12.6C12.9667 10.3333 13 10.0353 13 9.66667V9C13 8.632 12.9667 8.33333 12.5993 8.33333ZM9 5C9 4.632 8.96667 4.33333 8.59933 4.33333H5.39933C5.03067 4.33333 5 4.632 5 5V5.66667C5 6.03533 5.03067 6.33333 5.39933 6.33333H8.6C8.96667 6.33333 9 6.03533 9 5.66667V5ZM7.66667 1.4C7.66667 1.03133 7.368 1 7 1C6.63133 1 6.33333 1.03133 6.33333 1.4V3.66667H7.66667V1.4ZM6.33333 12.6C6.33333 12.9673 6.63133 13 7 13C7.36867 13 7.66667 12.9673 7.66667 12.6V7H6.33333V12.6ZM11.6667 1.4C11.6667 1.03133 11.368 1 11 1C10.6313 1 10.3333 1.03133 10.3333 1.4V7.66667H11.6667V1.4ZM10.3333 12.6C10.3333 12.9673 10.6313 13 11 13C11.3687 13 11.6667 12.9673 11.6667 12.6V11H10.3333V12.6Z" fill="white"/>
</svg>
