<svg width="64" height="64" viewBox="0 0 64 64" fill="none" xmlns="http://www.w3.org/2000/svg">
<rect width="64" height="64" rx="16" fill="url(#paint0_radial_74_8698)"/>
<path d="M22.9047 37.1858C22.9047 33.6948 22.6593 31.9493 22.1684 31.9493C21.7267 31.9493 21.0886 32.9641 20.2542 34.9938C19.4689 37.0234 18.6099 39.0531 17.6773 41.0827C16.7448 43.1936 15.8858 44.249 15.1005 44.249C14.6587 44.249 13.9716 42.95 13.039 40.3521C12.1555 37.7541 11.1738 35.1967 10.094 32.6799C9.01415 30.082 8.05703 28.783 7.22262 28.783C6.9772 28.783 6.85449 28.58 6.85449 28.1741C6.85449 26.8751 7.78707 24.5207 9.65223 21.1108C11.5174 17.701 12.8426 15.9961 13.628 15.9961C14.4624 15.9961 15.6649 18.1069 17.2356 22.3286C18.8553 26.5503 19.9352 28.6612 20.4751 28.6612C21.015 28.6612 22.0948 26.9969 23.7146 23.6682C25.3834 20.3396 26.6841 18.6753 27.6167 18.6753C28.5983 18.6753 29.31 19.3247 29.7518 20.6237C30.2426 21.8415 30.5126 23.1811 30.5617 24.6425C30.6598 26.1038 30.758 27.484 30.8562 28.783C30.9543 30.0008 31.1507 30.6097 31.4452 30.6097C31.936 30.6097 33.1876 28.6206 35.2 24.6425C37.2615 20.5831 38.7586 18.5535 39.6911 18.5535C40.7219 18.5535 42.4398 21.1108 44.8449 26.2256C45.7284 28.1741 46.8327 29.9602 48.158 31.5839C49.5323 33.1265 50.6612 33.8977 51.5447 33.8977C52.4282 33.8977 53.2872 33.6542 54.1216 33.1671C54.956 32.6799 55.6677 32.4364 56.2567 32.4364C56.8457 32.4364 57.1402 32.7611 57.1402 33.4106C57.1402 33.7354 57.042 34.0195 56.8457 34.2631C56.6985 34.5066 56.2812 35.1561 55.5941 36.2116C54.956 37.1858 54.4161 37.9571 53.9743 38.5254C53.5817 39.0937 52.9927 39.8649 52.2073 40.8392C51.4711 41.8946 50.833 42.7065 50.2931 43.2748C48.8206 44.7361 47.4217 45.4668 46.0965 45.4668C44.8203 45.4668 43.3724 44.249 41.7526 41.8134C40.182 39.459 38.8076 37.1046 37.6296 34.7502C36.5007 32.3146 35.6663 31.0968 35.1264 31.0968C34.5865 31.0968 33.703 32.3146 32.4759 34.7502C31.2979 37.1858 30.0708 39.6214 28.7947 42.057C27.5676 44.4926 26.4878 45.7104 25.5552 45.7104C24.6717 45.7104 23.9845 45.0203 23.4937 43.6401C23.0519 42.26 22.8311 40.758 22.8311 39.1343L22.9047 37.1858Z" fill="white"/>
<defs>
<radialGradient id="paint0_radial_74_8698" cx="0" cy="0" r="1" gradientUnits="userSpaceOnUse" gradientTransform="translate(52.7007 1.84915) rotate(124.574) scale(83.0934)">
<stop stop-color="#8F90FF"/>
<stop offset="1" stop-color="#0000F1"/>
</radialGradient>
</defs>
</svg>
